<?xml version="1.0" encoding="UTF-8"?> <svg xmlns="http://www.w3.org/2000/svg" width="168" height="36" viewBox="0 0 168 36" fill="none"><g clip-path="url(#clip0_197_885)"><path d="M49.3473 30.0887H47.483V29.7874H51.8552V30.0887H50.0052V34.1884H49.3473V30.0887Z" fill="white"></path><path d="M54.7908 33.7872C54.983 33.6531 55.1167 33.4509 55.1647 33.2217H55.6363C55.5623 33.5373 55.3648 33.81 55.088 33.9789C54.774 34.1697 54.4113 34.2649 54.044 34.2529C53.732 34.2601 53.4227 34.1933 53.1415 34.0579C52.8913 33.9358 52.6832 33.742 52.5439 33.5011C52.3988 33.2455 52.3256 32.9555 52.3322 32.6617C52.3255 32.3634 52.3974 32.0687 52.5406 31.8069C52.6781 31.5644 52.8851 31.3686 53.1349 31.2447C53.4133 31.1076 53.7206 31.0396 54.0309 31.0464C54.5426 31.0464 54.9421 31.1848 55.2294 31.4617C55.5168 31.7386 55.667 32.1284 55.6801 32.631H52.9123V32.6617C52.9123 33.077 53.0132 33.4025 53.215 33.6403C53.4305 33.8836 53.7458 34.0145 54.0703 33.9954C54.3265 34.0042 54.5789 33.9313 54.7908 33.7872H54.7908ZM53.2841 31.5844C53.0783 31.7985 52.9535 32.0775 52.931 32.3735H55.1329C55.1088 32.0778 54.986 31.7987 54.7842 31.5811C54.5862 31.3916 54.3191 31.2914 54.0451 31.3039C53.764 31.2912 53.4896 31.3923 53.2841 31.5844H53.2841Z" fill="white"></path><path d="M57.6025 34.058C57.347 33.9381 57.1334 33.7441 56.9895 33.5013C56.7045 32.9694 56.7045 32.3302 56.9895 31.7983C57.1327 31.5561 57.345 31.3623 57.5992 31.2416C57.8904 31.1057 58.209 31.0389 58.5303 31.0465C58.9089 31.0312 59.2839 31.1264 59.6093 31.3205C59.8831 31.488 60.0737 31.7628 60.1346 32.0778H59.663C59.6104 31.847 59.472 31.6449 59.2759 31.5123C59.0635 31.3692 58.8115 31.2963 58.5555 31.3041C58.2238 31.2885 57.9024 31.421 57.6782 31.6657C57.4589 31.9068 57.3492 32.2356 57.3492 32.652C57.3492 33.0684 57.4589 33.3972 57.6782 33.6383C57.9024 33.883 58.2238 34.0155 58.5555 33.9999C58.8104 34.0068 59.0611 33.934 59.2727 33.7917C59.4703 33.66 59.61 33.4577 59.663 33.2262H60.1346C60.0733 33.5419 59.8813 33.817 59.606 33.9835C59.2837 34.1763 58.9123 34.2715 58.5368 34.2575C58.2142 34.2636 57.8945 34.1953 57.6025 34.058L57.6025 34.058Z" fill="white"></path><path d="M61.3683 29.8958H61.9473V31.7007C62.0565 31.4943 62.2264 31.3263 62.4342 31.2196C62.6605 31.1018 62.9127 31.0423 63.1678 31.0464C63.5706 31.0464 63.8839 31.1462 64.1076 31.3456C64.3386 31.5591 64.4621 31.8646 64.4443 32.1785V34.1905H63.8653V32.1215C63.9084 31.7128 63.6119 31.3466 63.2029 31.3034C63.1493 31.2978 63.0953 31.298 63.0417 31.304C62.741 31.2917 62.45 31.4119 62.2456 31.6327C62.0391 31.8709 61.9323 32.1794 61.9473 32.4941V34.1916H61.3683V29.8958V29.8958Z" fill="white"></path><path d="M65.7405 31.109H66.3195V31.6504C66.4276 31.4603 66.5909 31.3075 66.7877 31.212C67.0092 31.1012 67.254 31.0452 67.5016 31.0487C67.9088 31.0487 68.2298 31.1547 68.4644 31.3665C68.7031 31.5864 68.832 31.9006 68.8164 32.2246V34.1972H68.2385V32.16C68.2533 31.9269 68.1712 31.6981 68.0115 31.5276C67.8357 31.3716 67.6046 31.2927 67.37 31.3085C67.0809 31.2947 66.8002 31.4085 66.6024 31.6197C66.4048 31.8463 66.3023 32.1403 66.3162 32.4405V34.1939H65.7372L65.7405 31.109H65.7405Z" fill="white"></path><path d="M70.8298 34.0546C70.5715 33.9323 70.3549 33.7368 70.2069 33.4924C69.9131 32.969 69.9131 32.3304 70.2069 31.807C70.3549 31.5626 70.5715 31.3671 70.8298 31.2448C71.1228 31.1071 71.4437 31.0392 71.7674 31.0464C72.0921 31.0394 72.4141 31.1073 72.7083 31.2448C72.9677 31.3667 73.1855 31.5622 73.3344 31.807C73.6269 32.3308 73.6269 32.9686 73.3344 33.4924C73.1855 33.7372 72.9677 33.9328 72.7083 34.0546C72.4141 34.1921 72.0921 34.26 71.7674 34.253C71.4437 34.2603 71.1228 34.1924 70.8298 34.0546ZM72.648 33.6371C72.8614 33.3982 72.9685 33.0694 72.9693 32.6508C72.9693 32.2322 72.8596 31.9023 72.648 31.6645C72.1599 31.189 71.3815 31.189 70.8934 31.6645C70.6817 31.9034 70.5754 32.2333 70.5754 32.6508C70.5754 33.0683 70.685 33.3993 70.8934 33.6371C71.3815 34.1126 72.1599 34.1126 72.648 33.6371Z" fill="white"></path><path d="M74.9508 29.8958H75.5298V34.1905H74.9508V29.8958Z" fill="white"></path><path d="M77.7691 34.0546C77.5108 33.9323 77.2942 33.7368 77.1462 33.4924C76.8525 32.969 76.8525 32.3304 77.1462 31.807C77.2942 31.5626 77.5108 31.3671 77.7691 31.2448C78.0621 31.1071 78.383 31.0392 78.7067 31.0464C79.0314 31.0394 79.3534 31.1073 79.6476 31.2448C79.907 31.3667 80.1248 31.5622 80.2738 31.807C80.5663 32.3308 80.5663 32.9686 80.2738 33.4924C80.1248 33.7372 79.907 33.9328 79.6476 34.0546C79.3534 34.1921 79.0314 34.26 78.7067 34.253C78.383 34.2603 78.0621 34.1924 77.7691 34.0546ZM79.5873 33.6371C79.8015 33.3982 79.9086 33.0694 79.9086 32.6508C79.9086 32.2322 79.7989 31.9023 79.5873 31.6645C79.0992 31.189 78.3208 31.189 77.8327 31.6645C77.6211 31.9034 77.5147 32.2333 77.5147 32.6508C77.5147 33.0683 77.6244 33.3993 77.8327 33.6371C78.3208 34.1126 79.0992 34.1126 79.5873 33.6371Z" fill="white"></path><path d="M84.5482 31.0903C84.3768 31.0859 84.206 31.1138 84.0449 31.1725C84.2434 31.2416 84.4181 31.3659 84.5482 31.5309C84.6675 31.6924 84.7292 31.8891 84.7237 32.0898C84.727 32.3849 84.5934 32.665 84.3618 32.8481C84.1213 33.0505 83.7558 33.1601 83.2652 33.1769C83.1072 33.1804 82.9506 33.207 82.8003 33.2558C82.6741 33.2996 82.6105 33.3533 82.6105 33.4158C82.6105 33.4783 82.6522 33.5111 82.7334 33.5385C82.8344 33.5683 82.9395 33.582 83.0448 33.5791H83.3157C83.8355 33.5791 84.2375 33.6521 84.5219 33.7983C84.8063 33.9444 84.9478 34.1508 84.9463 34.4174C84.9475 34.6149 84.8683 34.8044 84.727 34.9424C84.5539 35.1077 84.342 35.2268 84.1107 35.2887C83.8092 35.3749 83.4966 35.4163 83.183 35.4114C82.8872 35.416 82.5921 35.381 82.3057 35.3073C82.0929 35.2568 81.8948 35.1578 81.7267 35.018C81.5988 34.9113 81.5242 34.7538 81.5227 34.5873C81.5271 34.4082 81.6216 34.2434 81.7738 34.1489C82.0113 34.0069 82.2786 33.9221 82.5546 33.9013C82.4015 33.8906 82.2539 33.8396 82.1269 33.7533C82.0418 33.6933 81.9901 33.5966 81.9877 33.4925C81.9951 33.3794 82.059 33.2777 82.1576 33.2218C82.292 33.1355 82.4458 33.0839 82.6051 33.0717C82.3628 33.0196 82.1435 32.8918 81.9789 32.7068C81.8402 32.5319 81.7676 32.3139 81.7738 32.0909C81.7679 31.7862 81.9207 31.5003 82.1774 31.3358C82.4449 31.1473 82.8013 31.0531 83.2466 31.0531C83.4154 31.0507 83.584 31.0654 83.7499 31.0969C83.8632 30.9925 83.9958 30.9114 84.1403 30.858C84.4232 30.7599 84.7295 30.7511 85.0176 30.8328V31.1846C84.8695 31.1207 84.7096 31.0885 84.5483 31.0903H84.5482ZM82.355 34.0985C82.1072 34.2081 81.9833 34.3616 81.9833 34.5544C81.9833 34.7473 82.0929 34.8832 82.3123 35.0048C82.5903 35.1311 82.8943 35.1901 83.1994 35.1769C83.5208 35.1916 83.8406 35.1225 84.1271 34.9763C84.3611 34.8412 84.4777 34.6691 84.477 34.4602C84.477 34.2848 84.3772 34.1522 84.1776 34.0646C83.9244 33.9668 83.6538 33.9217 83.3826 33.932C83.0323 33.9172 82.6827 33.9739 82.355 34.0985L82.355 34.0985ZM83.9276 32.709C84.2376 32.3702 84.2376 31.851 83.9276 31.5122C83.7392 31.362 83.5013 31.2877 83.2608 31.304C83.0232 31.2889 82.7885 31.3632 82.6029 31.5122C82.2939 31.8514 82.2939 32.3698 82.6029 32.709C82.7908 32.8574 83.0273 32.9305 83.2663 32.9139C83.5026 32.9275 83.7357 32.8546 83.9221 32.7089H83.9276V32.709Z" fill="white"></path><path d="M86.1834 35.3488C86.0803 35.3208 85.9833 35.274 85.8972 35.2108L86.0737 34.9028C86.1252 34.9698 86.1938 35.0216 86.2722 35.053C86.3498 35.0893 86.4343 35.1087 86.52 35.1099C86.6698 35.1068 86.8155 35.06 86.9389 34.9751C87.0779 34.8856 87.1952 34.7662 87.2822 34.6256C87.3668 34.4949 87.4124 34.3428 87.4138 34.1872C87.4146 34.0489 87.3799 33.9127 87.3129 33.7916L85.8719 31.1001H86.5146L87.7855 33.5954L88.9918 31.1111H89.357L87.8151 34.2891C87.4496 35.0343 87.0281 35.4073 86.5507 35.408C86.4261 35.4054 86.3025 35.3855 86.1834 35.3488Z" fill="white"></path><path d="M92.7805 29.7896H93.4385V34.1906H92.7805V29.7896Z" fill="white"></path><path d="M95.0823 31.109H95.6613V31.6504C95.7698 31.4603 95.9335 31.3074 96.1306 31.212C96.352 31.1011 96.5969 31.0451 96.8445 31.0488C97.2514 31.0488 97.5716 31.1583 97.8073 31.3666C98.046 31.5864 98.1749 31.9006 98.1594 32.2246V34.1972H97.5803V32.16C97.5949 31.9272 97.5132 31.6986 97.3544 31.5277C97.1784 31.3714 96.9468 31.2924 96.7118 31.3085C96.4226 31.2947 96.142 31.4085 95.9442 31.6197C95.7466 31.8463 95.6441 32.1403 95.658 32.4405V34.1939H95.079L95.0823 31.109H95.0823Z" fill="white"></path><path d="M99.4622 31.109H100.041V31.6504C100.149 31.46 100.313 31.3072 100.511 31.212C100.732 31.1011 100.977 31.0451 101.224 31.0488C101.631 31.0488 101.951 31.1583 102.187 31.3666C102.426 31.5864 102.555 31.9006 102.539 32.2246V34.1972H101.96V32.16C101.975 31.9272 101.893 31.6986 101.734 31.5277C101.558 31.3714 101.327 31.2924 101.092 31.3085C100.803 31.2947 100.522 31.4085 100.324 31.6197C100.126 31.8463 100.024 32.1403 100.038 32.4405V34.1939H99.4622V31.109H99.4622Z" fill="white"></path><path d="M104.551 34.0547C104.293 33.9324 104.077 33.7368 103.929 33.4925C103.635 32.969 103.635 32.3305 103.929 31.807C104.077 31.5626 104.293 31.3671 104.551 31.2448C104.844 31.1069 105.165 31.039 105.488 31.0464C105.813 31.0393 106.135 31.1072 106.429 31.2448C106.689 31.3663 106.906 31.562 107.055 31.807C107.349 32.3305 107.349 32.969 107.055 33.4925C106.906 33.7375 106.689 33.9331 106.429 34.0547C106.136 34.1914 105.816 34.2593 105.493 34.253C105.168 34.2613 104.846 34.1934 104.551 34.0547ZM106.37 33.6371C106.583 33.3982 106.69 33.0695 106.69 32.6508C106.69 32.2322 106.58 31.9023 106.37 31.6645C105.881 31.1896 105.103 31.1896 104.615 31.6645C104.403 31.9034 104.297 32.2333 104.297 32.6508C104.297 33.0684 104.407 33.3993 104.615 33.6371C105.103 34.1121 105.881 34.1121 106.37 33.6371Z" fill="white"></path><path d="M108.119 31.1089H108.747L110.031 33.5955L111.289 31.1111H111.629L110.056 34.253H109.786L108.119 31.1089Z" fill="white"></path><path d="M112.594 34.0075C112.211 33.6768 112.17 33.099 112.501 32.7168C112.548 32.6619 112.602 32.6129 112.661 32.5708C112.917 32.4013 113.29 32.3165 113.78 32.3165H114.705V32.0897C114.719 31.8697 114.634 31.6549 114.471 31.5056C114.317 31.3711 114.093 31.3039 113.798 31.3039C113.561 31.2926 113.326 31.36 113.131 31.4957C112.96 31.6285 112.853 31.8276 112.836 32.0437H112.383C112.413 31.7456 112.574 31.4763 112.822 31.3083C113.074 31.1359 113.41 31.0501 113.829 31.0508C114.298 31.0508 114.657 31.1461 114.905 31.3368C115.156 31.5359 115.294 31.8444 115.276 32.1642V33.1823C115.274 33.5221 115.306 33.8613 115.371 34.1949H114.829C114.784 34.0172 114.755 33.8361 114.741 33.6535C114.489 34.0553 114.084 34.2566 113.527 34.2573C113.118 34.2544 112.807 34.1711 112.594 34.0075L112.594 34.0075ZM114.193 33.8727C114.346 33.7866 114.474 33.6619 114.563 33.5111C114.654 33.359 114.701 33.185 114.699 33.008V32.5697H113.932C113.563 32.5697 113.289 32.63 113.112 32.7494C112.932 32.8719 112.83 33.0803 112.844 33.2974C112.831 33.4946 112.907 33.6873 113.051 33.8223C113.227 33.9533 113.444 34.0168 113.662 34.0009C113.847 34.0061 114.03 33.9619 114.193 33.8727Z" fill="white"></path><path d="M117.083 34.0263C116.949 33.8761 116.882 33.6427 116.882 33.3293V31.3677H116.333L116.422 31.109H116.894L117.121 30.2422H117.466V31.109H118.324L118.241 31.3677H117.462V33.417C117.462 33.7983 117.604 33.989 117.889 33.989C118.044 33.9879 118.195 33.9467 118.328 33.8696V34.1436C118.126 34.2226 117.909 34.2599 117.692 34.2531C117.421 34.2531 117.217 34.1775 117.083 34.0263L117.083 34.0263Z" fill="white"></path><path d="M119.537 30.619C119.38 30.467 119.377 30.2173 119.529 30.0611C119.531 30.0586 119.534 30.056 119.537 30.0535C119.717 29.9102 119.973 29.9102 120.154 30.0535C120.31 30.2072 120.312 30.4584 120.158 30.6145L120.154 30.619C119.973 30.7607 119.718 30.7607 119.537 30.619ZM119.555 31.1089H120.134V34.1905H119.555V31.1089Z" fill="white"></path><path d="M122.349 34.0547C122.091 33.9324 121.875 33.7368 121.727 33.4925C121.433 32.969 121.433 32.3305 121.727 31.807C121.875 31.5626 122.091 31.3671 122.349 31.2448C122.642 31.1069 122.963 31.039 123.286 31.0464C123.611 31.0392 123.933 31.1071 124.227 31.2448C124.486 31.3663 124.704 31.562 124.853 31.807C125.147 32.3305 125.147 32.969 124.853 33.4925C124.704 33.7375 124.486 33.9331 124.227 34.0547C123.933 34.1924 123.611 34.2603 123.286 34.253C122.963 34.2604 122.642 34.1925 122.349 34.0547ZM124.168 33.6371C124.382 33.3982 124.489 33.0695 124.488 32.6508C124.488 32.2322 124.378 31.9023 124.168 31.6645C123.679 31.1896 122.901 31.1896 122.413 31.6645C122.201 31.9034 122.095 32.2333 122.095 32.6508C122.095 33.0684 122.205 33.3993 122.413 33.6371C122.901 34.1121 123.679 34.1121 124.168 33.6371Z" fill="white"></path><path d="M126.306 31.109H126.885V31.6504C126.993 31.4603 127.156 31.3075 127.353 31.212C127.575 31.1012 127.82 31.0452 128.068 31.0487C128.475 31.0487 128.796 31.1547 129.03 31.3665C129.269 31.5862 129.398 31.9005 129.383 32.2246V34.1972H128.804V32.16C128.819 31.9269 128.737 31.6981 128.577 31.5276C128.401 31.3716 128.17 31.2927 127.936 31.3085C127.646 31.2947 127.366 31.4085 127.168 31.6197C126.97 31.8463 126.868 32.1403 126.882 32.4405V34.1939H126.303L126.306 31.109Z" fill="white"></path><path d="M131.044 34.0009C130.788 33.8485 130.612 33.5912 130.563 33.2973H131.041C131.07 33.5081 131.19 33.6955 131.37 33.8091C131.593 33.9427 131.85 34.0075 132.109 33.9954C132.352 34.0048 132.592 33.9419 132.799 33.8146C132.962 33.7165 133.061 33.5399 133.06 33.3499C133.06 33.1942 132.972 33.0517 132.833 32.9817C132.596 32.8663 132.341 32.7922 132.079 32.7625C131.794 32.7201 131.513 32.6541 131.239 32.5653C131.068 32.5145 130.913 32.4214 130.789 32.2946C130.695 32.1832 130.646 32.0411 130.651 31.8957C130.65 31.6354 130.794 31.3963 131.025 31.2754C131.274 31.1231 131.623 31.0464 132.072 31.0464C132.442 31.0302 132.809 31.1163 133.132 31.2951C133.389 31.4404 133.562 31.6977 133.601 31.9899H133.128C133.095 31.7832 132.975 31.6004 132.799 31.4869C132.594 31.3586 132.355 31.2949 132.114 31.3039C131.892 31.2939 131.671 31.3427 131.474 31.4453C131.328 31.5159 131.234 31.6631 131.232 31.8255C131.228 31.9111 131.257 31.9948 131.314 32.059C131.4 32.1343 131.502 32.188 131.612 32.2157C131.824 32.2771 132.04 32.3254 132.257 32.3603C132.744 32.4444 133.097 32.5605 133.314 32.7088C133.523 32.8394 133.648 33.0699 133.643 33.3159C133.646 33.6046 133.487 33.8706 133.231 34.0042C132.955 34.1693 132.575 34.2522 132.089 34.2529C131.724 34.2687 131.362 34.1814 131.044 34.0009H131.044Z" fill="white"></path><path d="M46.3458 34.0766H41.7773V29.5122L46.3458 34.0766Z" fill="#AA182C"></path><path d="M56.8634 8.35502C55.0759 6.94462 52.477 6.229 49.151 6.229H41.671V23.544H49.2924C52.5987 23.544 55.1659 22.7769 56.9237 21.2657C58.7002 19.738 59.6016 17.498 59.6016 14.606C59.6016 11.8969 58.6805 9.78953 56.8634 8.35501V8.35502ZM49.6258 21.2394H46.5114V8.52708H49.6225C51.3124 8.52708 52.5504 9.02023 53.4091 10.0361C54.2677 11.052 54.7097 12.5939 54.7097 14.5994C54.7097 16.8295 54.271 18.5194 53.4102 19.6229C52.5603 20.7111 51.3212 21.2394 49.6225 21.2394H49.6258Z" fill="white"></path><path d="M76.8633 16.7901C76.8633 18.309 76.5683 19.4936 75.986 20.31C75.4377 21.0826 74.408 21.475 72.9276 21.475C71.3923 21.475 70.344 21.0706 69.8176 20.275C69.255 19.4246 68.9699 18.252 68.9699 16.7901V6.229H64.1273V16.2487C64.1273 18.4985 64.7787 20.332 66.065 21.7007C67.3513 23.0695 69.6674 23.7741 72.9243 23.7741C76.1812 23.7741 78.4907 23.0761 79.777 21.6996C81.0633 20.3232 81.7026 18.4974 81.7026 16.2487V6.229H76.8633V16.7901Z" fill="white"></path><path d="M98.9072 16.5249L91.1092 6.229H86.5474V23.5385H91.1564V11.4432L100.2 23.5385H103.515V6.229H98.9072V16.5249Z" fill="white"></path><path d="M108.465 23.5385H124.538V21.2394H113.309V15.4454H123.244V13.1451H113.309V8.52817H124.538V6.229H108.465V23.5385Z" fill="white"></path><path d="M145.177 6.229H140.549L133.468 13.2394V6.229H128.623V23.5385H133.468V17.8816L134.811 16.5391L139.967 23.5385H145.742L138.167 13.2087L145.177 6.229Z" fill="white"></path><path d="M166.794 10.0788C165.992 8.75711 164.826 7.73246 163.328 7.03328C161.85 6.34397 160.087 5.99438 158.089 5.99438C156.091 5.99438 154.303 6.34397 152.825 7.03328C151.327 7.73246 150.16 8.75711 149.36 10.0788C148.559 11.4004 148.154 12.9872 148.154 14.813C148.154 16.6705 148.557 18.2902 149.36 19.6283C150.175 20.9867 151.384 22.0655 152.826 22.722C154.303 23.4201 156.075 23.774 158.09 23.774C160.104 23.774 161.873 23.4201 163.344 22.722C164.78 22.062 165.982 20.9836 166.794 19.6283C167.591 18.2902 168 16.6694 168 14.813C168 12.9927 167.592 11.3938 166.794 10.0788ZM158.089 21.476C156.422 21.476 155.199 20.9368 154.349 19.8321C153.485 18.7056 153.048 17.019 153.048 14.8174C153.048 12.6672 153.486 11.0168 154.358 9.91437C155.23 8.81191 156.442 8.29794 158.087 8.29794C159.732 8.29794 160.954 8.82615 161.804 9.91218C162.666 11.0157 163.104 12.6661 163.104 14.8174C163.104 17.0179 162.665 18.7056 161.802 19.8321C160.954 20.9357 159.739 21.4749 158.089 21.4749V21.476Z" fill="white"></path><path d="M12.0023 8.97869C12.2533 9.62666 12.9824 9.94865 13.6308 9.69785C14.0868 9.52144 14.3994 9.09701 14.4324 8.60938L12.0023 8.97869Z" fill="#AA182C"></path><path d="M22.8818 0H0V17.2975L6.53467 23.7763H17.0281C16.2999 19.5966 13.9028 16.3243 11.17 14.4931C10.9825 14.3013 10.2675 13.9068 9.99227 13.8213C9.67903 13.7211 9.3537 13.6636 9.02507 13.6504C8.94385 13.6416 8.86222 13.6372 8.78052 13.6372C7.51232 13.6336 6.48129 14.658 6.47765 15.9254V15.9265C6.47826 16.0255 6.48559 16.1244 6.49958 16.2224C6.1706 15.9265 5.82736 15.6745 5.5565 15.3808C4.35681 14.0547 3.44115 12.8175 4.10569 10.9972C4.66386 9.46845 6.42611 8.82846 7.99206 8.82846C8.54804 8.82846 9.11389 8.70791 9.54705 8.21695C10.7434 6.86134 12.7272 5.59231 14.5914 5.41587C17.5161 5.13861 18.2102 5.84217 21.1393 5.62518C22.2885 5.5397 23.6538 5.44655 24.9719 4.92382C25.1232 5.74025 24.7263 6.65751 23.6823 7.12983C30.0426 8.95667 32.5407 13.5956 33.5265 17.2953C34.3885 15.6212 34.8371 13.7654 34.8348 11.8827C34.8337 5.32162 29.4822 0 22.8818 0V0Z" fill="#AA182C"></path></g><defs><clipPath id="clip0_197_885"><rect width="168" height="35.4118" fill="white"></rect></clipPath></defs></svg> 